# xmcd
#
# Track frame offsets: 
#        150
#        13092
#        34092
#        52190
#        83520
#        101062
#        119125
#        135845
#        162180
#        176220
#        196367
#        213282
#
# Disc length: 3178 seconds
#
# Revision: 2
# Processed by: cddbd v1.5.1PL0 Copyright (c) Steve Scherf et al.
# Submitted via: ExactAudioCopy v0.95a4
#
DISCID=a40c680c
DTITLE=Various Artist - 100% R&B
DYEAR=2001
DGENRE=R&B
TTITLE0=Earth, Wind and Fire - Shining Star
TTITLE1=Sly and the Family Stone - Thank You (Falettinme Be Mice Elf Agi
TTITLE1=n)
TTITLE2=Marvin Gaye - Let's Get It On
TTITLE3=Temptations - Papa Was A Rolling Stone
TTITLE4=Curtis Mayfield - Superfly
TTITLE5=Average White Band - Pick Up The Pieces
TTITLE6=Bill Withers - Use Me
TTITLE7=B.T. Express - Do It ('Til You're Satisfied)
TTITLE8=O'Jays - Back Stabbers
TTITLE9=Johnnie Taylor - Disco Lady
TTITLE10=Billy Preston - Will It Go Round In Circles
TTITLE11=Isley Brothers - That Lady
EXTD=
EXTT0=
EXTT1=
EXTT2=
EXTT3=
EXTT4=
EXTT5=
EXTT6=
EXTT7=
EXTT8=
EXTT9=
EXTT10=
EXTT11=
PLAYORDER=
